HIERARCHY
ROOT Hips
{
	OFFSET	0.00	0.00	0.00
	CHANNELS 6 Xposition Yposition Zposition Zrotation Xrotation Yrotation
	JOINT LeftUpLeg
	{
		OFFSET	 0.126116	-0.014019	-0.065224
		CHANNELS 3 Zrotation Xrotation Yrotation
		JOINT LeftLeg
		{
			OFFSET	 0.000000	 0.000000	 0.569914
			CHANNELS 3 Zrotation Xrotation Yrotation
			JOINT LeftFoot
			{
				OFFSET	 0.000000	 0.000000	 0.544423
				CHANNELS 3 Zrotation Xrotation Yrotation
				JOINT LeftToeBase
				{
					OFFSET	 0.000000	 0.000000	 0.207117
					CHANNELS 3 Zrotation Xrotation Yrotation
					End Site
					{
						OFFSET	 0.000000	 0.000000	 0.207117
					}
				}
			}
		}
	}
	JOINT RightUpLeg
	{
		OFFSET	-0.124023	-0.008373	-0.065224
		CHANNELS 3 Zrotation Xrotation Yrotation
		JOINT RightLeg
		{
			OFFSET	 0.000000	 0.000000	 0.570047
			CHANNELS 3 Zrotation Xrotation Yrotation
			JOINT RightFoot
			{
				OFFSET	 0.000000	 0.000000	 0.544354
				CHANNELS 3 Zrotation Xrotation Yrotation
				JOINT RightToeBase
				{
					OFFSET	 0.000000	 0.000000	 0.207540
					CHANNELS 3 Zrotation Xrotation Yrotation
					End Site
					{
						OFFSET	 0.000000	 0.000000	 0.207540
					}
				}
			}
		}
	}
	JOINT Spine
	{
		OFFSET	 0.000184	-0.007763	 0.117403
		CHANNELS 3 Zrotation Xrotation Yrotation
		JOINT Spine1
		{
			OFFSET	 0.000000	 0.000000	 0.137269
			CHANNELS 3 Zrotation Xrotation Yrotation
			JOINT Spine2
			{
				OFFSET	 0.000000	 0.000000	 0.156879
				CHANNELS 3 Zrotation Xrotation Yrotation
				JOINT LeftShoulder
				{
					OFFSET	 0.080501	-0.002496	 0.160144
					CHANNELS 3 Zrotation Xrotation Yrotation
					JOINT LeftArm
					{
						OFFSET	 0.000000	 0.000000	 0.164363
						CHANNELS 3 Zrotation Xrotation Yrotation
						JOINT LeftForeArm
						{
							OFFSET	 0.000000	 0.000000	 0.364576
							CHANNELS 3 Zrotation Xrotation Yrotation
							JOINT LeftHand
							{
								OFFSET	 0.000000	 0.000000	 0.360812
								CHANNELS 3 Zrotation Xrotation Yrotation
								JOINT LeftHandIndex1
								{
									OFFSET	 0.000000	 0.000000	 0.086006
									CHANNELS 3 Zrotation Xrotation Yrotation
									JOINT LeftHandIndex2
									{
										OFFSET	 0.000000	 0.000000	 0.047237
										CHANNELS 3 Zrotation Xrotation Yrotation
										JOINT LeftHandIndex3
										{
											OFFSET	-0.004284	-0.000551	 0.038165
											CHANNELS 3 Zrotation Xrotation Yrotation
											End Site
											{
												OFFSET	-0.004284	-0.000551	 0.038165
											}
										}
									}
								}
							}
						}
					}
				}
				JOINT Neck
				{
					OFFSET	 0.000000	 0.000000	 0.176489
					CHANNELS 3 Zrotation Xrotation Yrotation
					JOINT Head
					{
						OFFSET	 0.000000	-0.001747	 0.077940
						CHANNELS 3 Zrotation Xrotation Yrotation
						End Site
						{
							OFFSET	 0.000000	-0.001747	 0.077940
						}
					}
				}
				JOINT RightShoulder
				{
					OFFSET	-0.080363	 0.000306	 0.159706
					CHANNELS 3 Zrotation Xrotation Yrotation
					JOINT RightArm
					{
						OFFSET	 0.000000	 0.000000	 0.164196
						CHANNELS 3 Zrotation Xrotation Yrotation
						JOINT RightForeArm
						{
							OFFSET	 0.000000	 0.000000	 0.365611
							CHANNELS 3 Zrotation Xrotation Yrotation
							JOINT RightHand
							{
								OFFSET	 0.000000	 0.000000	 0.360648
								CHANNELS 3 Zrotation Xrotation Yrotation
								JOINT RightHandIndex1
								{
									OFFSET	 0.000000	 0.000000	 0.069977
									CHANNELS 3 Zrotation Xrotation Yrotation
									JOINT RightHandIndex2
									{
										OFFSET	 0.000000	 0.000000	 0.052305
										CHANNELS 3 Zrotation Xrotation Yrotation
										JOINT RightHandIndex3
										{
											OFFSET	 0.009002	-0.000782	 0.042196
											CHANNELS 3 Zrotation Xrotation Yrotation
											End Site
											{
												OFFSET	 0.009002	-0.000782	 0.042196
											}
										}
									}
								}
							}
						}
					}
				}
			}
		}
	}
}
MOTION
Frames:    13
Frame Time: 0.03333334
-0.640429	-0.129163	 1.252300	-159.469000	 8.752411	 8.960205	-23.585570	-9.377674	 170.428900	-9.139386	-32.017760	-3.824982	 130.713000	 88.415020	-135.821300	-2.385833	 28.452760	 0.000004	 57.579500	-45.857980	-165.276000	-29.462270	-59.001200	-16.057890	 36.039380	 39.671030	-42.762500	 2.384659	 28.388700	-0.000001	 25.887210	-19.508910	-14.081780	 45.407460	 27.294850	-0.618190	-6.221217	-4.095699	-3.451166	-91.776150	 78.527420	 180.000000	 25.581960	 55.509500	-34.772530	-8.471601	-6.503664	-44.492760	 7.779230	-3.308410	-4.178172	-4.131196	 21.524690	 0.986298	-5.167839	 0.733520	 3.519257	-1.378229	 35.397820	-2.634230	-14.087480	 16.448570	-7.576824	-25.646720	 3.629910	 5.411107	 89.782160	 78.203850	 179.999900	 2.240974	 66.685880	-5.029414	-3.508542	-5.839526	 19.142630	 99.565860	-29.042820	-0.599704	 5.715225	 19.176060	-3.692089	 5.027514	 0.245388	-9.378011	-2.350882	 35.473990	 5.254307
-0.640168	-0.128732	 1.252499	-159.827800	 8.902735	 9.448437	-23.424660	-9.444841	 169.916000	-8.993870	-32.331670	-3.779652	 132.298100	 87.666200	-137.767700	-2.385833	 28.452760	 0.000004	 58.261900	-46.085530	-165.221400	-26.748530	-59.041050	-13.681840	 43.805580	 44.708320	-46.902330	 2.384659	 28.388700	-0.000001	 25.739570	-20.312720	-14.842720	 45.663630	 27.964870	-0.673882	-6.197136	-4.135232	-3.594393	-91.776230	 78.527400	-179.999900	 25.827800	 55.342740	-35.000580	-8.283799	-6.678045	-44.433480	 8.201138	-3.011636	-4.313782	-4.131196	 21.524690	 0.986298	-5.167839	 0.733520	 3.519257	-1.378229	 35.397820	-2.634230	-13.970160	 16.392320	-7.922814	-25.715520	 3.482128	 5.364583	 89.782080	 78.203890	-180.000000	 2.446986	 66.625800	-5.153456	-3.862379	-5.962436	 19.109110	 99.080140	-29.153420	-0.305623	 5.715225	 19.176060	-3.692089	 5.027514	 0.245388	-9.378011	-2.350882	 35.473990	 5.254307
-0.639732	-0.128058	 1.252970	-159.929100	 8.718081	 9.348769	-22.412190	-9.153876	 170.019000	-8.840431	-31.831330	-3.645727	 131.304900	 85.859480	-137.046600	-2.385833	 28.452760	 0.000004	 57.506920	-46.102120	-165.570700	-24.547160	-59.399900	-11.803810	 49.010240	 48.024840	-49.577330	 2.384659	 28.388700	-0.000001	 25.483810	-21.106880	-15.338980	 46.058540	 29.787880	-1.690362	-6.221839	-4.961990	-3.217944	-91.776140	 78.527380	 180.000000	 25.729040	 55.317080	-34.938020	-8.046262	-6.881912	-44.292580	 8.425284	-2.884708	-4.407262	-4.131196	 21.524690	 0.986298	-5.167839	 0.733520	 3.519257	-1.378229	 35.397820	-2.634230	-13.997610	 16.295060	-7.815507	-25.716230	 3.449197	 5.174196	 89.782120	 78.203870	 180.000000	 2.381850	 66.630630	-4.896262	-4.402561	-6.065186	 18.813750	 99.140450	-27.695070	 0.897957	 5.715225	 19.176060	-3.692089	 5.027514	 0.245388	-9.378011	-2.350882	 35.473990	 5.254307
-0.638952	-0.127091	 1.253459	-160.086200	 8.565294	 9.254386	-21.268580	-8.852176	 170.090100	-8.625698	-31.276310	-3.476162	 131.536000	 83.919490	-137.550500	-2.385833	 28.452760	 0.000004	 56.317400	-46.215280	-166.029700	-22.072640	-59.684150	-9.675662	 54.950630	 51.414270	-53.084940	 2.384659	 28.388700	-0.000001	 25.275010	-21.857720	-15.790600	 46.475810	 31.466270	-2.650731	-6.233794	-5.708868	-2.874067	-91.776180	 78.527360	-180.000000	 25.621440	 55.288440	-34.864250	-7.777122	-7.112149	-44.138740	 8.674997	-2.740520	-4.510748	-4.131196	 21.524690	 0.986298	-5.167839	 0.733520	 3.519257	-1.378229	 35.397820	-2.634230	-14.025870	 16.203330	-7.701893	-25.714920	 3.405949	 4.966643	 89.782140	 78.203900	 179.999900	 2.388382	 66.637950	-4.670656	-5.015421	-6.179204	 18.489390	 99.102600	-26.232510	 2.194649	 5.715225	 19.176060	-3.692089	 5.027514	 0.245388	-9.378011	-2.350882	 35.473990	 5.254307
-0.637673	-0.126236	 1.253419	-160.993400	 8.943368	 9.593749	-20.135840	-9.195166	 169.642200	-8.108696	-31.415310	-3.218033	 140.240100	 83.271390	-146.661100	-2.385833	 28.452760	 0.000004	 55.441570	-46.959060	-166.116600	-20.354700	-59.311750	-8.149580	 56.185700	 52.950940	-53.480030	 2.384659	 28.388700	-0.000001	 26.148710	-21.686320	-16.009180	 46.121240	 30.733610	-1.142904	-6.223305	-5.099241	-3.377435	-91.776190	 78.527360	-180.000000	 25.495410	 55.152190	-34.708910	-7.482628	-7.425394	-44.216440	 8.953904	-2.581146	-4.635976	-4.131196	 21.524690	 0.986298	-5.167839	 0.733520	 3.519257	-1.378229	 35.397820	-2.634230	-14.013960	 16.426580	-7.701998	-25.669500	 3.238137	 4.852840	 89.782100	 78.203850	 180.000000	 2.302567	 66.685400	-4.217302	-5.816660	-6.272508	 17.943180	 97.706370	-27.095590	 2.428482	 5.715225	 19.176060	-3.692089	 5.027514	 0.245388	-9.378011	-2.350882	 35.473990	 5.254307
-0.636166	-0.125162	 1.253370	-161.793300	 9.269645	 9.875256	-19.131620	-9.453394	 169.269300	-7.548183	-31.482330	-2.929251	 146.088300	 82.416690	-152.975700	-2.385833	 28.452760	 0.000004	 54.704020	-47.532270	-166.215800	-18.880800	-58.924560	-6.846960	 57.543890	 54.380150	-54.075420	 2.384659	 28.388700	-0.000001	 26.937130	-21.498740	-16.149370	 45.824630	 30.052400	 0.178862	-6.202259	-4.549476	-3.833587	-91.776180	 78.527380	-180.000000	 25.392970	 55.029110	-34.589390	-7.215057	-7.704651	-44.260220	 9.199194	-2.432700	-4.746262	-4.131196	 21.524690	 0.986298	-5.167839	 0.733520	 3.519257	-1.378229	 35.397820	-2.634230	-13.998440	 16.631190	-7.706815	-25.627750	 3.093481	 4.774390	 89.782090	 78.203870	 180.000000	 2.158321	 66.717510	-3.733058	-6.536648	-6.350837	 17.470770	 96.436710	-27.844300	 2.588134	 5.715225	 19.176060	-3.692089	 5.027514	 0.245388	-9.378011	-2.350882	 35.473990	 5.254307
-0.634003	-0.123148	 1.253437	-162.126100	 9.659322	 9.387265	-18.362140	-9.498319	 169.622100	-6.617299	-30.611000	-2.379425	 143.090900	 79.775270	-150.798900	-2.385833	 28.452760	 0.000004	 56.502600	-47.013230	-164.876300	-18.466020	-58.995790	-6.494780	 63.035450	 55.738430	-58.306790	 2.384659	 28.388700	-0.000001	 27.421100	-21.863490	-15.362090	 45.836660	 30.485730	 0.215550	-6.164104	-4.700790	-4.169034	-91.776250	 78.527380	-179.999900	 25.407340	 54.944150	-34.751070	-6.948770	-7.884472	-43.947260	 9.442737	-2.268319	-4.864633	-4.131196	 21.524690	 0.986298	-5.167839	 0.733520	 3.519257	-1.378229	 35.397820	-2.634230	-13.884370	 16.901270	-7.809421	-25.566450	 3.091282	 5.188727	 89.782140	 78.203850	 179.999900	 1.455581	 66.643840	-2.855066	-7.138560	-6.541097	 17.409180	 95.324010	-27.948960	 3.086356	 5.715225	 19.176060	-3.692089	 5.027514	 0.245388	-9.378011	-2.350882	 35.473990	 5.254307
-0.631829	-0.121132	 1.253500	-162.350600	 9.970804	 8.926409	-17.720060	-9.435071	 169.968400	-5.823114	-29.742840	-1.922639	 140.802000	 77.468690	-149.144400	-2.385833	 28.452760	 0.000004	 57.988930	-46.450230	-163.789200	-18.145660	-59.057780	-6.222993	 68.102810	 56.712310	-62.268210	 2.384659	 28.388700	-0.000001	 27.803600	-22.178050	-14.627140	 45.872710	 30.911900	 0.093986	-6.129618	-4.882163	-4.392578	-91.776250	 78.527400	-179.999900	 25.413240	 54.880300	-34.892350	-6.720725	-8.026780	-43.650560	 9.640868	-2.130356	-4.961864	-4.131196	 21.524690	 0.986298	-5.167839	 0.733520	 3.519257	-1.378229	 35.397820	-2.634230	-13.780520	 17.113500	-7.902008	-25.517280	 3.106426	 5.566256	 89.782100	 78.203930	 180.000000	 0.858283	 66.573680	-2.095300	-7.621538	-6.698268	 17.370410	 94.441440	-28.029980	 3.560724	 5.715225	 19.176060	-3.692089	 5.027514	 0.245388	-9.378011	-2.350882	 35.473990	 5.254307
-0.629020	-0.118259	 1.253728	-161.898800	 10.055430	 7.633417	-17.280580	-8.767563	 171.140400	-5.050892	-27.694800	-1.441312	 133.991400	 74.156980	-142.736100	-2.385833	 28.452760	 0.000004	 60.730590	-44.647740	-162.152600	-18.278640	-59.681780	-6.378200	 77.156430	 57.359460	-69.516330	 2.384659	 28.388700	-0.000001	 27.804980	-22.677550	-12.967900	 46.204840	 32.315590	-1.642608	-6.057207	-5.869074	-4.122909	-91.776150	 78.527400	 180.000000	 25.422410	 54.902520	-35.133140	-6.487063	-8.082429	-43.043790	 9.842581	-1.978786	-5.064784	-4.131196	 21.524690	 0.986298	-5.167839	 0.733520	 3.519257	-1.378229	 35.397820	-2.634230	-13.562640	 17.153150	-8.081602	-25.487430	 3.339474	 6.394445	 89.782100	 78.203900	 180.000000	-0.002224	 66.455940	-1.190594	-7.830321	-6.862471	 17.584280	 94.179790	-27.654810	 5.012686	 5.715225	 19.176060	-3.692089	 5.027514	 0.245388	-9.378011	-2.350882	 35.473990	 5.254307
-0.625785	-0.115140	 1.253876	-161.484800	 10.081210	 6.477271	-16.968360	-7.934541	 172.182000	-4.315148	-25.638920	-1.022953	 129.748300	 71.362690	-138.723800	-2.385833	 28.452760	 0.000004	 62.820340	-42.893270	-161.055400	-18.335110	-60.138730	-6.456660	 85.101330	 57.650450	-75.704070	 2.384659	 28.388700	-0.000001	 27.951270	-22.792300	-11.344970	 46.385150	 33.109860	-3.010961	-5.960087	-6.556519	-3.872370	-91.776140	 78.527420	 180.000000	 25.408360	 54.902210	-35.326460	-6.264390	-8.140079	-42.500750	 10.034320	-1.832672	-5.164081	-4.131196	 21.524690	 0.986298	-5.167839	 0.733520	 3.519257	-1.378229	 35.397820	-2.634230	-13.343350	 17.178740	-8.287373	-25.468700	 3.571201	 7.214234	 89.782100	 78.203890	 180.000000	-0.876813	 66.349950	-0.221198	-7.989806	-6.986590	 17.740500	 93.877270	-27.770780	 6.444024	 5.715225	 19.176060	-3.692089	 5.027514	 0.245388	-9.378011	-2.350882	 35.473990	 5.254307
-0.621110	-0.112002	 1.253245	-161.719400	 9.344554	 6.344616	-17.916240	-6.494213	 172.606000	-3.490722	-25.184210	-0.654867	 129.868400	 73.070280	-139.687100	-2.385833	 28.452760	 0.000004	 61.662330	-42.096950	-162.328200	-17.724050	-59.553700	-5.889929	 82.415840	 59.688260	-72.275730	 2.384659	 28.388700	-0.000001	 28.853660	-20.337540	-10.616500	 45.397850	 30.578690	-2.451313	-5.691311	-5.682588	-3.126743	-91.776170	 78.527400	 180.000000	 25.481260	 54.498550	-35.205510	-6.179920	-8.291150	-42.744440	 10.217450	-1.671608	-5.272202	-4.131196	 21.524690	 0.986298	-5.167839	 0.733520	 3.519257	-1.378229	 35.397820	-2.634230	-13.053570	 17.082640	-8.797156	-25.517970	 3.815653	 8.191176	 89.782100	 78.203850	 180.000000	-2.843341	 66.365780	 2.047337	-7.709999	-6.739122	 17.392540	 93.177630	-32.234550	 8.058105	 5.715225	 19.176060	-3.692089	 5.027514	 0.245388	-9.378011	-2.350882	 35.473990	 5.254307
-0.618118	-0.109818	 1.252977	-161.831100	 8.975671	 6.341250	-18.052900	-5.701168	 172.715000	-3.415300	-24.881950	-0.615744	 129.851200	 73.998340	-139.817700	-2.385833	 28.452760	 0.000004	 61.133660	-41.634180	-163.040600	-17.438980	-59.167500	-5.620947	 81.224020	 60.660820	-70.664730	 2.384659	 28.388700	-0.000001	 29.234930	-19.112480	-10.287560	 44.994420	 29.202000	-2.270647	-5.557906	-5.174629	-2.736457	-91.776170	 78.527360	 180.000000	 25.568980	 54.271250	-35.196050	-6.130688	-8.365487	-42.836750	 10.305960	-1.587028	-5.329747	-4.131196	 21.524690	 0.986298	-5.167839	 0.733520	 3.519257	-1.378229	 35.397820	-2.634230	-12.901010	 17.047120	-9.063316	-25.545920	 3.911030	 8.684403	 89.782140	 78.203890	 179.999900	-3.902406	 66.336080	 3.261026	-7.410815	-6.597649	 17.308800	 93.094430	-34.699130	 9.111977	 5.715225	 19.176060	-3.692089	 5.027514	 0.245388	-9.378011	-2.350882	 35.473990	 5.254307
-0.613535	-0.105636	 1.252986	-161.834600	 9.057021	 6.886847	-15.531530	-5.513468	 171.700200	-5.814583	-24.798540	-1.622038	 126.550200	 74.723880	-134.760800	-2.385833	 28.452760	 0.000004	 61.339150	-41.368720	-163.603600	-17.482200	-58.449800	-5.615728	 83.064910	 60.662720	-72.130710	 2.384659	 28.388700	-0.000001	 28.740960	-19.807970	-11.122520	 45.343020	 29.891920	-2.544622	-5.524407	-5.268196	-2.796089	-91.776190	 78.527400	 180.000000	 25.874230	 54.139330	-35.526360	-6.063064	-8.349656	-42.563770	 10.330940	-1.500436	-5.388885	-4.131196	 21.524690	 0.986298	-5.167839	 0.733520	 3.519257	-1.378229	 35.397820	-2.634230	-12.782540	 17.152140	-9.248224	-25.568170	 3.707758	 8.889536	 89.782140	 78.203890	 180.000000	-4.485445	 66.135840	 4.025923	-6.025612	-6.217712	 17.598080	 95.060210	-37.081170	 11.768500	 5.715225	 19.176060	-3.692089	 5.027514	 0.245388	-9.378011	-2.350882	 35.473990	 5.254307
